<?xml version="1.0" encoding="utf-8"?>
<!-- Generator: Adobe Illustrator 16.0.0, SVG Export Plug-In . SVG Version: 6.00 Build 0)  -->
<!DOCTYPE svg PUBLIC "-//W3C//DTD SVG 1.1//EN" "http://www.w3.org/Graphics/SVG/1.1/DTD/svg11.dtd">
<svg version="1.1" id="Layer_1" xmlns="http://www.w3.org/2000/svg" xmlns:xlink="http://www.w3.org/1999/xlink" x="0px" y="0px"
	 width="1132.063px" height="190.594px" viewBox="0 0 1132.063 190.594" enable-background="new 0 0 1132.063 190.594"
	 xml:space="preserve">
<g>
	
		<image overflow="visible" opacity="0.5" width="4791" height="626" xlink:href="E136EAF34BA96507.png"  transform="matrix(0.24 0 0 0.24 0.1431 -5)">
	</image>
	<g>
		<g>
			<path fill="#E7CA21" d="M105.245,2.45v22.4h-1.05L91.77,8.4H62.894v100.102l11.725,8.75v1.05H35.594v-1.05l11.725-8.75V8.4
				H18.618L6.193,24.851h-1.05V2.45H105.245z"/>
			<path fill="#E7CA21" d="M172.269,0.525c31.675,0,57.751,24.15,57.751,58.801c0,34.826-26.076,60.901-57.751,60.901
				c-31.5,0-57.576-23.976-57.576-58.451C114.692,26.776,140.068,0.525,172.269,0.525z M172.269,114.277
				c22.05,0,40.601-20.825,40.601-53.726c0-33.076-18.55-54.076-40.601-54.076c-22.226,0-40.251,21-40.251,54.076
				C132.018,93.626,150.218,114.277,172.269,114.277z"/>
			<path fill="#E7CA21" d="M339.57,2.45v22.4h-1.05L326.095,8.4H297.22v100.102l11.725,8.75v1.05h-39.025v-1.05l11.725-8.75V8.4
				h-28.701l-12.425,16.45h-1.05V2.45H339.57z"/>
			<path fill="#E7CA21" d="M362.843,117.252v1.05h-28.875v-1.05l9.8-8.4L385.769,0h1.925l45.676,108.852l9.8,8.4v1.05h-37.801v-1.05
				l12.075-8.4l-16.45-39.375h-35.176l-15.05,39.375L362.843,117.252z M368.094,63.701h30.45l-15.925-37.976L368.094,63.701z"/>
			<path fill="#E7CA21" d="M534.517,90.302h1.05v28H452.09v-1.05l11.55-8.4V11.9l-11.55-8.4V2.45h38.851V3.5l-11.725,8.4v100.452
				h40.251L534.517,90.302z"/>
			<path fill="#E7CA21" d="M623.413,72.102v-1.575c15.226-2.275,30.801-14.175,30.801-33.775c0-16.976-10.15-28.875-30.626-28.875
				h-8.225v100.977l13.3,8.4v1.05h-40.426v-1.05l11.551-8.4V11.9l-11.551-8.4V2.45h41.65c22.926,0,40.251,10.675,40.251,32.201
				C670.139,59.151,647.913,72.626,623.413,72.102z"/>
			<path fill="#E7CA21" d="M683.437,118.302v-1.05l11.551-8.4V11.9l-11.551-8.4V2.45h43.226c22.926,0,34.826,10.5,34.826,24.675
				c0,15.4-12.075,25.201-21.176,29.401l20.825,35.175c10.676,18.2,21.176,24.676,23.976,25.551v1.05
				c-0.875,0.175-5.425,1.05-8.75,1.05c-9.45,0-18.375-2.625-28.176-19.95l-22.75-39.201h-14.875v48.651l13.3,8.4v1.05H683.437z
				 M710.562,7.875v47.076h15.925c11.025,0,19.426-11.025,19.426-23.451c0-16.975-11.551-23.625-24.15-23.625H710.562z"/>
			<path fill="#E7CA21" d="M845.312,0.525c31.676,0,57.751,24.15,57.751,58.801c0,34.826-26.075,60.901-57.751,60.901
				c-31.5,0-57.575-23.976-57.575-58.451C787.736,26.776,813.111,0.525,845.312,0.525z M845.312,114.277
				c22.051,0,40.601-20.825,40.601-53.726c0-33.076-18.55-54.076-40.601-54.076c-22.225,0-40.25,21-40.25,54.076
				C805.062,93.626,823.262,114.277,845.312,114.277z"/>
			<path fill="#E7CA21" d="M975.336,0.525c31.676,0,57.751,24.15,57.751,58.801c0,34.826-26.075,60.901-57.751,60.901
				c-31.5,0-57.575-23.976-57.575-58.451C917.761,26.776,943.136,0.525,975.336,0.525z M975.336,114.277
				c22.051,0,40.601-20.825,40.601-53.726c0-33.076-18.55-54.076-40.601-54.076c-22.225,0-40.25,21-40.25,54.076
				C935.086,93.626,953.286,114.277,975.336,114.277z"/>
			<path fill="#E7CA21" d="M1121.111,41.651h0.875v29.75h-0.875l-7.875-11.9h-37.801v49.176l16.975,8.575v1.05h-44.101v-1.05
				l11.551-8.4V11.9l-11.551-8.4V2.45h76.477v21.7h-1.05l-11.9-15.925h-36.4v45.326h37.801L1121.111,41.651z"/>
		</g>
	</g>
</g>
<g>
	
		<image overflow="visible" opacity="0.5" width="4842" height="269" xlink:href="E136EAF34BA96505.png"  transform="matrix(0.24 0 0 0.24 -5 151.1938)">
	</image>
	<g>
		<g>
			<path fill="#E7CA21" d="M11.686,162.851v26.332h-4.63v-26.332H0V158.5h18.72v4.352H11.686z"/>
			<path fill="#E7CA21" d="M42.136,170.502h13.235V158.5h4.63v30.684h-4.63v-14.328H42.136v14.328h-4.631V158.5h4.631V170.502z"/>
			<path fill="#E7CA21" d="M98.938,162.851H86.637v7.373h11.943v4.353H86.637v10.254h12.301v4.353H82.006V158.5h16.932V162.851z"/>
			<path fill="#E7CA21" d="M162.662,173.206h12.679v1.014c0,2.305-0.272,4.345-0.815,6.12c-0.53,1.644-1.424,3.18-2.683,4.61
				c-2.849,3.207-6.472,4.81-10.87,4.81c-4.293,0-7.969-1.55-11.03-4.65c-3.061-3.113-4.59-6.849-4.59-11.208
				c0-4.451,1.557-8.228,4.67-11.328c3.113-3.112,6.902-4.67,11.367-4.67c2.398,0,4.637,0.49,6.717,1.471
				c1.987,0.98,3.941,2.57,5.862,4.77l-3.299,3.16c-2.517-3.352-5.584-5.028-9.201-5.028c-3.246,0-5.969,1.12-8.168,3.358
				c-2.199,2.2-3.299,4.955-3.299,8.268c0,3.418,1.226,6.233,3.677,8.446c2.292,2.054,4.776,3.08,7.452,3.08
				c2.279,0,4.326-0.769,6.141-2.306c1.815-1.55,2.829-3.404,3.041-5.564h-7.651V173.206z"/>
			<path fill="#E7CA21" d="M212.449,181.731h-13.136l-3.418,7.452h-4.988l15.183-32.611l14.646,32.611h-5.067L212.449,181.731z
				 M210.562,177.378l-4.551-10.434l-4.77,10.434H210.562z"/>
			<path fill="#E7CA21" d="M243.854,158.5v26.331h9.022v4.353h-13.653V158.5H243.854z"/>
			<path fill="#E7CA21" d="M291.654,181.731h-13.136l-3.418,7.452h-4.988l15.183-32.611l14.646,32.611h-5.067L291.654,181.731z
				 M289.766,177.378l-4.551-10.434l-4.77,10.434H289.766z"/>
			<path fill="#E7CA21" d="M368.315,160.149v5.484c-2.676-2.238-5.445-3.358-8.307-3.358c-3.153,0-5.81,1.133-7.969,3.398
				c-2.173,2.253-3.259,5.008-3.259,8.268c0,3.219,1.086,5.936,3.259,8.147c2.172,2.213,4.835,3.319,7.989,3.319
				c1.629,0,3.014-0.266,4.153-0.795c0.636-0.266,1.295-0.623,1.978-1.073c0.682-0.45,1.401-0.994,2.156-1.63v5.584
				c-2.65,1.497-5.432,2.246-8.347,2.246c-4.385,0-8.128-1.53-11.228-4.591c-3.087-3.087-4.63-6.81-4.63-11.169
				c0-3.908,1.292-7.393,3.875-10.453c3.18-3.749,7.293-5.624,12.341-5.624C363.082,157.903,365.745,158.652,368.315,160.149z"/>
			<path fill="#E7CA21" d="M387.081,173.702c0-4.318,1.583-8.028,4.75-11.129c3.153-3.1,6.942-4.649,11.367-4.649
				c4.372,0,8.121,1.563,11.248,4.689c3.14,3.127,4.71,6.883,4.71,11.269c0,4.411-1.577,8.154-4.73,11.228
				c-3.167,3.088-6.988,4.631-11.466,4.631c-3.962,0-7.519-1.371-10.672-4.114C388.816,182.592,387.081,178.618,387.081,173.702z
				 M391.751,173.761c0,3.393,1.139,6.181,3.418,8.367c2.266,2.186,4.882,3.279,7.85,3.279c3.219,0,5.935-1.113,8.148-3.339
				c2.212-2.252,3.319-4.995,3.319-8.228c0-3.272-1.093-6.015-3.279-8.228c-2.173-2.226-4.862-3.339-8.068-3.339
				c-3.193,0-5.889,1.113-8.088,3.339C392.851,167.813,391.751,170.529,391.751,173.761z"/>
			<path fill="#E7CA21" d="M438.558,189.183l6.458-32.989l10.533,23.848l10.91-23.848l5.803,32.989h-4.75l-2.961-18.521
				l-9.082,19.933l-8.824-19.952l-3.299,18.541H438.558z"/>
			<path fill="#E7CA21" d="M492.339,189.183l6.458-32.989l10.533,23.848l10.91-23.848l5.803,32.989h-4.75l-2.961-18.521
				l-9.082,19.933l-8.824-19.952l-3.299,18.541H492.339z"/>
			<path fill="#E7CA21" d="M551.825,158.5v30.684h-4.631V158.5H551.825z"/>
			<path fill="#E7CA21" d="M582.315,162.851v26.332h-4.631v-26.332h-7.055V158.5h18.721v4.352H582.315z"/>
			<path fill="#E7CA21" d="M616.602,162.851v26.332h-4.631v-26.332h-7.055V158.5h18.721v4.352H616.602z"/>
			<path fill="#E7CA21" d="M659.354,162.851h-12.302v7.373h11.944v4.353h-11.944v10.254h12.302v4.353h-16.932V158.5h16.932V162.851z
				"/>
			<path fill="#E7CA21" d="M697.019,162.851h-12.302v7.373h11.944v4.353h-11.944v10.254h12.302v4.353h-16.932V158.5h16.932V162.851z
				"/>
			<path fill="#E7CA21" d="M752.315,162.832h-5.306l2.544-4.332h7.393v30.684h-4.631V162.832z"/>
			<path fill="#E7CA21" d="M786.9,190.237l-3.398-2.524l7.333-9.996c-0.397,0.053-0.735,0.093-1.014,0.119
				c-0.278,0.027-0.503,0.04-0.676,0.04c-2.478,0-4.623-0.947-6.438-2.842c-1.802-1.881-2.702-4.146-2.702-6.797
				c0-2.821,1-5.232,3-7.233c2.014-2.014,4.425-3.021,7.234-3.021c2.795,0,5.227,0.993,7.293,2.98
				c2.067,1.975,3.101,4.306,3.101,6.995c0,2.385-1.007,4.962-3.021,7.73L786.9,190.237z M784.516,167.899
				c0,1.656,0.562,3.048,1.689,4.174c1.139,1.14,2.51,1.709,4.113,1.709c1.603,0,2.968-0.563,4.094-1.689
				c1.14-1.14,1.709-2.511,1.709-4.113c0-1.604-0.569-2.975-1.709-4.114c-1.126-1.126-2.497-1.689-4.113-1.689
				c-1.59,0-2.948,0.563-4.074,1.689C785.085,165.004,784.516,166.349,784.516,167.899z"/>
			<path fill="#E7CA21" d="M826.672,190.237l-3.398-2.524l7.333-9.996c-0.397,0.053-0.735,0.093-1.014,0.119
				c-0.278,0.027-0.503,0.04-0.676,0.04c-2.478,0-4.623-0.947-6.438-2.842c-1.802-1.881-2.702-4.146-2.702-6.797
				c0-2.821,1-5.232,3-7.233c2.014-2.014,4.425-3.021,7.234-3.021c2.795,0,5.227,0.993,7.293,2.98
				c2.067,1.975,3.101,4.306,3.101,6.995c0,2.385-1.007,4.962-3.021,7.73L826.672,190.237z M824.287,167.899
				c0,1.656,0.562,3.048,1.689,4.174c1.139,1.14,2.51,1.709,4.113,1.709c1.603,0,2.968-0.563,4.094-1.689
				c1.14-1.14,1.709-2.511,1.709-4.113c0-1.604-0.569-2.975-1.709-4.114c-1.126-1.126-2.497-1.689-4.113-1.689
				c-1.59,0-2.948,0.563-4.074,1.689C824.856,165.004,824.287,166.349,824.287,167.899z"/>
			<path fill="#E7CA21" d="M878.705,162.832h-9.46l-1.51,5.088c0.225-0.026,0.44-0.047,0.646-0.06
				c0.205-0.014,0.395-0.021,0.566-0.021c2.981,0,5.426,1.007,7.333,3.021c1.921,2.001,2.882,4.564,2.882,7.691
				c0,3.232-1.087,5.896-3.259,7.988c-2.174,2.094-4.909,3.141-8.208,3.141c-4.067,0-7.273-1.908-9.618-5.724l3.497-2.961
				c0.967,1.643,1.941,2.802,2.922,3.478c0.979,0.663,2.179,0.994,3.597,0.994c1.854,0,3.411-0.649,4.67-1.948
				c1.259-1.338,1.888-2.961,1.888-4.868c0-1.961-0.622-3.564-1.867-4.81c-1.246-1.285-2.803-1.928-4.671-1.928
				c-2.08,0-3.875,0.907-5.385,2.723h-1.53l4.829-16.137h12.679V162.832z"/>
			<path fill="#E7CA21" d="M928.995,177.399h16.653v3.895h-16.653V177.399z"/>
			<path fill="#E7CA21" d="M1003.271,162.832h-5.306l2.544-4.332h7.393v30.684h-4.631V162.832z"/>
			<path fill="#E7CA21" d="M1037.854,190.237l-3.398-2.524l7.333-9.996c-0.397,0.053-0.735,0.093-1.014,0.119
				c-0.278,0.027-0.503,0.04-0.676,0.04c-2.478,0-4.623-0.947-6.438-2.842c-1.802-1.881-2.702-4.146-2.702-6.797
				c0-2.821,1-5.232,3-7.233c2.014-2.014,4.425-3.021,7.234-3.021c2.795,0,5.227,0.993,7.293,2.98
				c2.067,1.975,3.101,4.306,3.101,6.995c0,2.385-1.007,4.962-3.021,7.73L1037.854,190.237z M1035.47,167.899
				c0,1.656,0.562,3.048,1.689,4.174c1.139,1.14,2.51,1.709,4.113,1.709c1.603,0,2.968-0.563,4.094-1.689
				c1.14-1.14,1.709-2.511,1.709-4.113c0-1.604-0.569-2.975-1.709-4.114c-1.126-1.126-2.497-1.689-4.113-1.689
				c-1.59,0-2.948,0.563-4.074,1.689C1036.039,165.004,1035.47,166.349,1035.47,167.899z"/>
			<path fill="#E7CA21" d="M1077.626,190.237l-3.398-2.524l7.333-9.996c-0.397,0.053-0.735,0.093-1.014,0.119
				c-0.278,0.027-0.503,0.04-0.676,0.04c-2.478,0-4.623-0.947-6.438-2.842c-1.802-1.881-2.702-4.146-2.702-6.797
				c0-2.821,1-5.232,3-7.233c2.014-2.014,4.425-3.021,7.234-3.021c2.795,0,5.227,0.993,7.293,2.98
				c2.067,1.975,3.101,4.306,3.101,6.995c0,2.385-1.007,4.962-3.021,7.73L1077.626,190.237z M1075.241,167.899
				c0,1.656,0.562,3.048,1.689,4.174c1.139,1.14,2.51,1.709,4.113,1.709c1.603,0,2.968-0.563,4.094-1.689
				c1.14-1.14,1.709-2.511,1.709-4.113c0-1.604-0.569-2.975-1.709-4.114c-1.126-1.126-2.497-1.689-4.113-1.689
				c-1.59,0-2.948,0.563-4.074,1.689C1075.811,165.004,1075.241,166.349,1075.241,167.899z"/>
			<path fill="#E7CA21" d="M1124.333,162.832h-15.144V158.5h22.874l-19.356,31.737l-3.677-2.325L1124.333,162.832z"/>
		</g>
	</g>
</g>
</svg>
